<svg width="503" height="520" viewBox="0 0 503 520" fill="none" xmlns="http://www.w3.org/2000/svg">
<path d="M402.34 343.023C402.34 343.023 457.207 277.274 443.113 193.19C429.019 109.106 356.325 65.0832 307.564 70.0648C258.804 75.0464 210.254 124.457 162.61 130.562C114.966 136.666 43.1474 180.128 57.664 262.818C72.1806 345.509 116.294 353.6 187.7 356.637C259.105 359.674 360.148 397.54 402.34 343.023Z" fill="#A7C1F4"/>
<path opacity="0.7" d="M402.34 343.023C402.34 343.023 457.207 277.274 443.113 193.19C429.019 109.106 356.325 65.0832 307.564 70.0648C258.804 75.0464 210.254 124.457 162.61 130.562C114.966 136.666 43.1474 180.128 57.664 262.818C72.1806 345.509 116.294 353.6 187.7 356.637C259.105 359.674 360.148 397.54 402.34 343.023Z" fill="white"/>
<path d="M65.3901 269.36H446.664" stroke="#263238" stroke-linecap="round" stroke-linejoin="round"/>
<path d="M112.853 306.186C130.743 306.186 145.246 300.622 145.246 293.758C145.246 286.895 130.743 281.33 112.853 281.33C94.9629 281.33 80.46 286.895 80.46 293.758C80.46 300.622 94.9629 306.186 112.853 306.186Z" fill="#263238"/>
<path d="M93.9404 254.602L98.4574 292.5C98.4574 298.574 109.423 303.503 122.953 303.503C136.484 303.503 147.45 298.574 147.45 292.5L151.967 254.602H93.9404Z" fill="white"/>
<mask id="mask0_124_2" style="mask-type:luminance" maskUnits="userSpaceOnUse" x="93" y="254" width="59" height="50">
<path d="M93.9404 254.602L98.4574 292.5C98.4574 298.574 109.423 303.503 122.953 303.503C136.484 303.503 147.45 298.574 147.45 292.5L151.967 254.602H93.9404Z" fill="white"/>
</mask>
<g mask="url(#mask0_124_2)">
<path d="M118.708 254.602H93.9404L98.4574 292.5C98.4574 298.574 109.423 303.503 122.953 303.503C123.832 303.503 124.697 303.482 125.549 303.441C117.833 289.297 117.702 268.538 118.708 254.602Z" fill="#A7C1F4"/>
<path opacity="0.4" d="M118.708 254.602H93.9404L98.4574 292.5C98.4574 298.574 109.423 303.503 122.953 303.503C123.832 303.503 124.697 303.482 125.549 303.441C117.833 289.297 117.702 268.538 118.708 254.602Z" fill="white"/>
</g>
<path d="M93.9404 254.602L98.4574 292.5C98.4574 298.574 109.423 303.503 122.953 303.503C136.484 303.503 147.45 298.574 147.45 292.5L151.967 254.602H93.9404Z" stroke="#263238" stroke-linecap="round" stroke-linejoin="round"/>
<path d="M122.953 267.634C138.977 267.634 151.967 261.799 151.967 254.602C151.967 247.405 138.977 241.571 122.953 241.571C106.93 241.571 93.9404 247.405 93.9404 254.602C93.9404 261.799 106.93 267.634 122.953 267.634Z" fill="white" stroke="#263238" stroke-linecap="round" stroke-linejoin="round"/>
<path d="M122.953 265.595C137.271 265.595 148.878 260.52 148.878 254.259C148.878 247.998 137.271 242.923 122.953 242.923C108.636 242.923 97.0288 247.998 97.0288 254.259C97.0288 260.52 108.636 265.595 122.953 265.595Z" fill="#263238" stroke="#263238" stroke-linecap="round" stroke-linejoin="round"/>
<path d="M124.925 255.434C124.925 255.434 122.611 233.366 108.195 216.663C93.7794 199.961 97.3105 202.01 97.3105 202.01" stroke="#263238" stroke-linecap="round" stroke-linejoin="round"/>
<path d="M150.9 189.821C150.9 189.821 133.597 207.719 130.71 227.999C127.823 248.279 129.704 251.555 129.704 251.555" stroke="#263238" stroke-linecap="round" stroke-linejoin="round"/>
<path d="M127.762 254.218C127.762 254.218 124.382 241.738 120.921 216.663C117.461 191.589 119.191 178.495 119.191 178.495" stroke="#263238" stroke-linecap="round" stroke-linejoin="round"/>
<path d="M98.8092 208.832C98.8092 208.832 93.9703 214.261 86.5259 203.632C79.0815 193.003 81.5563 180.606 81.5563 180.606C81.5563 180.606 85.3489 186.586 91.0932 189.103C96.8374 191.62 105.227 205.92 98.8092 208.832Z" fill="#A7C1F4"/>
<path d="M119.151 184.454C119.151 184.454 112.229 186.243 111.656 173.129C111.082 160.014 119.704 151.06 119.704 151.06C119.704 151.06 119.704 158.215 123.164 163.54C126.625 168.865 126.082 185.65 119.151 184.454Z" fill="#A7C1F4"/>
<path d="M147.711 196.446C147.711 196.446 140.971 194.022 147.439 182.728C153.908 171.434 165.889 168.834 165.889 168.834C165.889 168.834 162.097 174.824 162.147 181.314C162.197 187.803 152.912 201.365 147.711 196.446Z" fill="#A7C1F4"/>
<path d="M127.229 252.45C127.229 252.45 131.846 230.974 141.655 220.844C147.473 214.821 155.342 211.394 163.576 211.297C163.576 211.297 152.037 216.07 148.576 225.607C145.116 235.144 139.321 256.027 139.321 256.027H110.509C110.509 256.027 107.039 248.279 97.23 239.325C87.4215 230.37 71.2651 224.422 71.2651 224.422C71.2651 224.422 89.1518 217.859 101.848 223.226C114.543 228.592 123.768 251.306 123.768 251.306L127.229 252.45Z" fill="#A7C1F4"/>
<path d="M131.676 252.398C131.676 252.398 120.227 244.275 107.733 245.627C95.2383 246.979 94.2021 257.473 93.6488 260.52C93.3424 262.31 93.1708 264.121 93.1357 265.938C93.1357 265.938 109.232 260.863 119.151 259.168C129.07 257.473 133.235 262.215 131.676 252.398Z" fill="#A7C1F4"/>
<path d="M127.41 252.398C127.41 252.398 134.613 244.275 142.5 245.627C150.387 246.979 151.011 257.473 151.333 260.52C151.531 262.319 151.642 264.128 151.664 265.938C151.664 265.938 141.514 260.863 135.297 259.168C129.08 257.473 126.424 262.215 127.41 252.398Z" fill="#A7C1F4"/>
<path d="M170.628 121.805H388.387C390.558 121.805 392.641 122.697 394.177 124.284C395.713 125.872 396.575 128.025 396.575 130.27V287.643H162.439V130.26C162.442 128.017 163.306 125.866 164.841 124.281C166.376 122.695 168.458 121.805 170.628 121.805Z" fill="#263238" stroke="#263238" stroke-linecap="round" stroke-linejoin="round"/>
<path d="M431.685 360.953H127.319L162.439 287.643H396.565L431.685 360.953Z" fill="white" stroke="#263238" stroke-linecap="round" stroke-linejoin="round"/>
<path d="M382.391 134.93H176.624V274.508H382.391V134.93Z" fill="#A7C1F4" stroke="#263238" stroke-linecap="round" stroke-linejoin="round"/>
<path d="M233.792 233.678C245.149 221.937 245.149 202.9 233.792 191.158C222.434 179.416 204.019 179.416 192.661 191.158C181.304 202.9 181.304 221.937 192.661 233.678C204.019 245.42 222.434 245.42 233.792 233.678Z" fill="#263238"/>
<path d="M301.004 233.676C312.362 221.935 312.362 202.898 301.004 191.156C289.647 179.414 271.232 179.414 259.874 191.156C248.516 202.898 248.516 221.935 259.874 233.676C271.232 245.418 289.647 245.418 301.004 233.676Z" fill="#263238"/>
<path d="M354.257 241.686C369.9 237.916 379.626 221.751 375.98 205.579C372.334 189.408 356.697 179.353 341.054 183.123C325.411 186.892 315.685 203.057 319.331 219.229C322.977 235.401 338.614 245.455 354.257 241.686Z" fill="#263238"/>
<path d="M193.243 204.755C193.243 204.755 206.059 168.563 213.594 168.563C221.129 168.563 234.398 204.329 234.398 204.329L232.155 204.537C232.155 204.537 219.127 173.191 215.264 171.257C211.401 169.322 204.268 180.721 195.516 204.714L193.243 204.755Z" fill="white" stroke="#263238" stroke-linecap="round" stroke-linejoin="round"/>
<path d="M194.54 202.644H233.06C234.213 202.644 235.318 203.117 236.133 203.96C236.948 204.802 237.406 205.945 237.406 207.137V228.498C237.406 229.453 237.039 230.368 236.387 231.043C235.734 231.718 234.849 232.097 233.925 232.097H193.685C192.762 232.097 191.877 231.718 191.224 231.043C190.571 230.368 190.205 229.453 190.205 228.498V207.147C190.203 206.557 190.314 205.973 190.532 205.427C190.749 204.881 191.068 204.385 191.47 203.967C191.873 203.549 192.351 203.217 192.878 202.99C193.405 202.763 193.97 202.645 194.54 202.644Z" fill="white" stroke="#263238" stroke-linecap="round" stroke-linejoin="round"/>
<path d="M190.597 218.431H233.332" stroke="#263238" stroke-linecap="round" stroke-linejoin="round"/>
<path d="M235.172 203.694C235.172 203.694 234.166 204.963 234.166 208.541C234.166 212.118 232.949 231.057 233.16 231.889C233.372 232.721 234.589 232.107 234.589 232.107" fill="white"/>
<path d="M235.172 203.694C235.172 203.694 234.166 204.963 234.166 208.541C234.166 212.118 232.949 231.057 233.16 231.889C233.372 232.721 234.589 232.107 234.589 232.107" stroke="#263238" stroke-linecap="round" stroke-linejoin="round"/>
<path d="M213.594 214.219H210.334V221.79H213.594V214.219Z" fill="white" stroke="#263238" stroke-linecap="round" stroke-linejoin="round"/>
<path d="M254.991 194.834C254.991 194.834 268.582 193.606 284.537 193.606C300.492 193.606 307.987 194.646 308.178 195.686C308.369 196.726 306.015 209.945 306.015 211.162C306.015 212.378 306.015 229.497 305.623 230.516C305.23 231.535 303.45 232.346 302.665 232.544C301.88 232.742 260.504 233.158 259.327 233.158C258.733 233.108 258.18 232.829 257.777 232.376C257.374 231.922 257.152 231.329 257.154 230.714C257.154 229.497 257.747 216.05 256.761 211.162C255.775 206.274 254.991 194.834 254.991 194.834Z" fill="white" stroke="#263238" stroke-linecap="round" stroke-linejoin="round"/>
<path d="M269.608 201.552C269.608 201.552 269.407 185.463 270.986 179.962C271.664 177.633 273.041 175.589 274.919 174.124C276.797 172.66 279.077 171.852 281.428 171.818C284.481 172.031 287.393 173.228 289.754 175.241C292.114 177.254 293.805 179.982 294.587 183.04C296.599 190.975 294.979 200.959 294.788 201.978C294.597 202.998 292.424 205.847 292.022 200.346C291.619 194.844 292.424 182.021 290.845 178.35C289.942 176.423 288.448 174.859 286.595 173.901C284.743 172.944 282.636 172.647 280.603 173.056C276.459 174.096 274.296 175.906 273.511 181.199C272.727 186.493 274.296 198.723 273.31 201.365C272.324 204.006 269.96 205.213 269.608 201.552Z" fill="white" stroke="#263238" stroke-linecap="round" stroke-linejoin="round"/>
<path d="M258.733 195.031C258.733 195.031 257.727 205.826 257.727 209.903C257.727 213.98 257.526 216.622 257.526 216.622" fill="white"/>
<path d="M258.733 195.031C258.733 195.031 257.727 205.826 257.727 209.903C257.727 213.98 257.526 216.622 257.526 216.622" stroke="#263238" stroke-linecap="round" stroke-linejoin="round"/>
<path d="M304.818 195.239C304.818 195.239 305.22 206.034 305.22 212.347" stroke="#263238" stroke-linecap="round" stroke-linejoin="round"/>
<path d="M355.621 193.17C355.377 193.172 355.14 193.083 354.955 192.918C354.77 192.754 354.649 192.525 354.615 192.275C352.673 179.722 350.239 165.88 348.991 161.387C347.15 165.63 343.106 179.14 339.756 191.422C339.683 191.698 339.507 191.933 339.266 192.074C339.026 192.215 338.741 192.252 338.474 192.176C338.207 192.101 337.98 191.918 337.843 191.67C337.707 191.421 337.671 191.126 337.744 190.85C337.744 190.767 339.897 182.936 342.231 175.126C347.09 158.839 348.006 158.486 348.73 158.246C348.911 158.182 349.104 158.164 349.293 158.193C349.482 158.222 349.661 158.297 349.816 158.413C350.35 158.818 351.084 159.37 353.981 175.926C355.38 183.914 356.607 191.859 356.617 191.942C356.641 192.081 356.638 192.223 356.608 192.36C356.578 192.497 356.521 192.626 356.441 192.74C356.361 192.854 356.26 192.949 356.143 193.021C356.026 193.094 355.897 193.14 355.762 193.159C355.715 193.168 355.668 193.171 355.621 193.17Z" fill="white" stroke="#263238" stroke-linecap="round" stroke-linejoin="round"/>
<path d="M322.976 189.675C322.976 189.675 343.006 188.406 349.907 188.687C356.808 188.968 369.071 189.727 369.021 190.549C368.97 191.37 368.729 217.589 368.015 222.789C367.3 227.989 363.709 234.52 360.59 235.716C357.472 236.912 346.989 236.475 341.617 236.246C336.245 236.018 331.406 235.29 328.992 231.743C326.578 228.197 324.847 213.304 324.847 213.304L322.976 189.675Z" fill="white" stroke="#263238" stroke-linecap="round" stroke-linejoin="round"/>
<path d="M338.891 195.374C338.9 194.966 338.793 194.565 338.583 194.219C338.373 193.874 338.069 193.6 337.71 193.431C337.35 193.263 336.95 193.208 336.561 193.273C336.171 193.337 335.808 193.519 335.518 193.795C335.227 194.072 335.022 194.43 334.927 194.826C334.832 195.222 334.852 195.639 334.984 196.023C335.116 196.408 335.355 196.743 335.671 196.989C335.986 197.234 336.364 197.378 336.758 197.402C337.028 197.419 337.299 197.38 337.554 197.286C337.809 197.192 338.043 197.046 338.242 196.857C338.441 196.668 338.601 196.439 338.713 196.184C338.824 195.929 338.885 195.654 338.891 195.374Z" fill="white" stroke="#263238" stroke-linecap="round" stroke-linejoin="round"/>
<path d="M358.014 196.698C358.199 195.548 357.447 194.461 356.334 194.269C355.222 194.078 354.17 194.856 353.985 196.006C353.8 197.156 354.552 198.243 355.664 198.435C356.777 198.626 357.829 197.848 358.014 196.698Z" fill="white" stroke="#263238" stroke-linecap="round" stroke-linejoin="round"/>
<path d="M326.477 224.515C326.477 224.515 340.863 223.257 367.19 224.63L326.477 224.515Z" fill="white"/>
<path d="M326.477 224.515C326.477 224.515 340.863 223.257 367.19 224.63" stroke="#263238" stroke-linecap="round" stroke-linejoin="round"/>
<path d="M378.508 139.048H179.812V155.75H378.508V139.048Z" fill="#263238"/>
<path d="M276.177 148.564H295.875" stroke="white" stroke-width="2" stroke-miterlimit="10"/>
<path d="M318.661 148.564H338.358" stroke="white" stroke-width="2" stroke-miterlimit="10"/>
<path d="M372.281 143.395C372.243 143.34 372.193 143.295 372.136 143.265C372.078 143.234 372.014 143.218 371.949 143.218H361.154L360.742 141.929C360.712 141.843 360.658 141.769 360.586 141.717C360.514 141.664 360.427 141.637 360.339 141.638H357.603C357.494 141.638 357.389 141.683 357.311 141.762C357.234 141.842 357.191 141.951 357.191 142.064C357.189 142.121 357.199 142.177 357.219 142.23C357.239 142.283 357.269 142.332 357.308 142.372C357.346 142.413 357.392 142.445 357.443 142.467C357.494 142.489 357.548 142.501 357.603 142.501H360.038L362.673 150.686C362.703 150.771 362.757 150.846 362.829 150.898C362.901 150.95 362.988 150.978 363.076 150.977H363.227C363.079 151.217 362.999 151.494 362.995 151.778C362.978 151.984 363.003 152.192 363.068 152.388C363.133 152.584 363.237 152.764 363.373 152.916C363.508 153.069 363.673 153.19 363.857 153.274C364.04 153.357 364.238 153.4 364.439 153.4C364.639 153.4 364.837 153.357 365.021 153.274C365.204 153.19 365.369 153.069 365.505 152.916C365.641 152.764 365.744 152.584 365.809 152.388C365.874 152.192 365.899 151.984 365.882 151.778C365.883 151.493 365.803 151.214 365.651 150.977H367.663C367.519 151.217 367.442 151.495 367.442 151.778C367.425 151.984 367.45 152.192 367.515 152.388C367.58 152.584 367.683 152.764 367.819 152.916C367.955 153.069 368.12 153.19 368.303 153.274C368.487 153.357 368.685 153.4 368.885 153.4C369.086 153.4 369.284 153.357 369.467 153.274C369.651 153.19 369.816 153.069 369.951 152.916C370.087 152.764 370.191 152.584 370.256 152.388C370.321 152.192 370.346 151.984 370.329 151.778C370.325 151.494 370.245 151.217 370.098 150.977H370.419C370.532 150.977 370.639 150.931 370.718 150.849C370.797 150.767 370.842 150.656 370.842 150.54C370.842 150.483 370.831 150.427 370.81 150.374C370.788 150.322 370.757 150.274 370.718 150.235C370.678 150.195 370.632 150.164 370.58 150.143C370.529 150.122 370.474 150.112 370.419 150.114H363.377L362.915 148.678H370.761C370.852 148.68 370.941 148.65 371.014 148.593C371.087 148.537 371.14 148.457 371.164 148.366L372.361 143.77C372.376 143.705 372.377 143.638 372.363 143.573C372.349 143.508 372.321 143.447 372.281 143.395ZM364.434 152.412C364.312 152.414 364.192 152.379 364.09 152.31C363.988 152.242 363.908 152.143 363.86 152.028C363.812 151.912 363.798 151.784 363.821 151.66C363.843 151.537 363.901 151.423 363.986 151.333C364.072 151.243 364.181 151.182 364.3 151.156C364.42 151.131 364.543 151.143 364.656 151.191C364.769 151.238 364.865 151.32 364.933 151.424C365.001 151.529 365.037 151.652 365.037 151.778C365.037 151.944 364.974 152.104 364.861 152.223C364.748 152.341 364.595 152.409 364.434 152.412ZM368.87 152.412C368.748 152.414 368.629 152.379 368.527 152.31C368.424 152.242 368.344 152.143 368.296 152.028C368.248 151.912 368.235 151.784 368.257 151.66C368.28 151.537 368.337 151.423 368.423 151.333C368.508 151.243 368.617 151.182 368.737 151.156C368.856 151.131 368.98 151.143 369.093 151.191C369.205 151.238 369.302 151.32 369.37 151.424C369.438 151.529 369.474 151.652 369.474 151.778C369.475 151.86 369.461 151.943 369.431 152.02C369.401 152.096 369.357 152.167 369.301 152.226C369.244 152.285 369.177 152.332 369.104 152.364C369.03 152.396 368.95 152.412 368.87 152.412ZM369.987 147.815H368.438V144.092H369.987V147.815ZM366.043 144.092H367.603V147.815H366.043V144.092ZM365.208 147.815H363.649V144.092H365.178L365.208 147.815ZM361.426 144.092H362.814V147.815H362.623L361.426 144.092ZM370.832 146.286V144.092H371.395L370.832 146.286Z" fill="white"/>
<path d="M375.53 143.125C375.54 142.495 375.368 141.877 375.037 141.349C374.706 140.82 374.231 140.406 373.671 140.157C373.111 139.909 372.493 139.839 371.894 139.956C371.296 140.072 370.744 140.37 370.31 140.811C369.876 141.253 369.579 141.818 369.456 142.435C369.334 143.051 369.392 143.692 369.622 144.274C369.853 144.857 370.246 145.355 370.752 145.706C371.257 146.057 371.852 146.245 372.461 146.245C373.266 146.242 374.037 145.914 374.611 145.331C375.184 144.748 375.514 143.956 375.53 143.125Z" fill="white"/>
<path d="M371.214 145.08C371.14 145.021 371.09 144.936 371.073 144.841C371.052 144.738 371.056 144.63 371.084 144.529C371.112 144.427 371.163 144.334 371.234 144.258L372.643 142.834C372.724 142.771 372.791 142.692 372.839 142.6C372.888 142.509 372.917 142.407 372.924 142.303C372.925 142.238 372.911 142.174 372.883 142.117C372.855 142.059 372.814 142.009 372.763 141.97C372.654 141.885 372.519 141.841 372.381 141.846H372.22H372.039L371.898 141.908L371.747 142.002L371.617 142.074C371.561 142.095 371.501 142.095 371.446 142.074C371.377 142.058 371.317 142.017 371.275 141.96C371.231 141.9 371.197 141.833 371.174 141.762C371.149 141.692 371.149 141.614 371.174 141.544C371.204 141.463 371.261 141.397 371.335 141.357C371.709 141.119 372.143 140.999 372.582 141.014C372.925 141.006 373.257 141.136 373.508 141.378C373.62 141.482 373.71 141.611 373.771 141.754C373.831 141.898 373.862 142.053 373.86 142.21C373.859 142.435 373.804 142.657 373.699 142.854C373.573 143.092 373.402 143.3 373.196 143.468L372.12 144.352H373.528C373.567 144.351 373.605 144.361 373.639 144.381C373.673 144.401 373.701 144.431 373.719 144.466C373.765 144.545 373.789 144.635 373.79 144.726C373.788 144.824 373.764 144.921 373.719 145.007C373.699 145.041 373.671 145.07 373.638 145.089C373.604 145.109 373.567 145.12 373.528 145.122H371.516C371.466 145.138 371.413 145.142 371.361 145.135C371.309 145.128 371.259 145.109 371.214 145.08Z" fill="#263238"/>
<path d="M259.951 152.412H187.217C186.581 152.412 185.95 152.282 185.363 152.03C184.775 151.778 184.241 151.409 183.792 150.943C183.342 150.478 182.986 149.925 182.743 149.317C182.501 148.709 182.377 148.057 182.378 147.399C182.378 146.072 182.888 144.8 183.795 143.862C184.703 142.924 185.933 142.397 187.217 142.397H259.951C261.234 142.397 262.465 142.924 263.372 143.862C264.28 144.8 264.789 146.072 264.789 147.399C264.791 148.057 264.667 148.709 264.424 149.317C264.181 149.925 263.825 150.478 263.376 150.943C262.926 151.409 262.392 151.778 261.805 152.03C261.217 152.282 260.587 152.412 259.951 152.412Z" fill="white"/>
<path d="M198.292 251.846H228.07" stroke="#263238" stroke-width="2" stroke-linecap="round" stroke-linejoin="round"/>
<path d="M198.292 257.681H228.07" stroke="#263238" stroke-width="2" stroke-linecap="round" stroke-linejoin="round"/>
<path d="M265.544 251.846H295.332" stroke="#263238" stroke-width="2" stroke-linecap="round" stroke-linejoin="round"/>
<path d="M265.544 257.681H295.332" stroke="#263238" stroke-width="2" stroke-linecap="round" stroke-linejoin="round"/>
<path d="M332.805 251.846H362.582" stroke="#263238" stroke-width="2" stroke-linecap="round" stroke-linejoin="round"/>
<path d="M332.805 257.681H362.582" stroke="#263238" stroke-width="2" stroke-linecap="round" stroke-linejoin="round"/>
<path d="M269.739 310.856L270.141 301.922H257.778L256.953 310.856H269.739Z" fill="#263238" stroke="white" stroke-linecap="round" stroke-linejoin="round"/>
<path d="M295.311 310.856L294.889 301.922H282.515L282.525 310.856H295.311Z" fill="#263238" stroke="white" stroke-linecap="round" stroke-linejoin="round"/>
<path d="M361.898 320.403H375.117L372.019 310.856H359.232L361.898 320.403Z" fill="#263238" stroke="white" stroke-linecap="round" stroke-linejoin="round"/>
<path d="M256.952 310.856L257.777 301.922H245.404L244.176 310.856H256.952Z" fill="#263238" stroke="white" stroke-linecap="round" stroke-linejoin="round"/>
<path d="M231.39 310.856L233.03 301.922H220.666L218.604 310.856H231.39Z" fill="#263238" stroke="white" stroke-linecap="round" stroke-linejoin="round"/>
<path d="M346.446 310.856L344.374 301.922H332L333.66 310.856H346.446Z" fill="#263238" stroke="white" stroke-linecap="round" stroke-linejoin="round"/>
<path d="M359.233 310.856L356.738 301.922H344.374L346.446 310.856H359.233Z" fill="#263238" stroke="white" stroke-linecap="round" stroke-linejoin="round"/>
<path d="M218.604 310.856L220.666 301.922H208.292L205.817 310.856H218.604Z" fill="#263238" stroke="white" stroke-linecap="round" stroke-linejoin="round"/>
<path d="M308.097 310.856L307.262 301.922H294.889L295.311 310.856H308.097Z" fill="#263238" stroke="white" stroke-linecap="round" stroke-linejoin="round"/>
<path d="M372.019 310.856L369.112 301.922H356.738L359.233 310.856H372.019Z" fill="#263238" stroke="white" stroke-linecap="round" stroke-linejoin="round"/>
<path d="M333.66 310.856L332 301.922H319.626L320.874 310.856H333.66Z" fill="#263238" stroke="white" stroke-linecap="round" stroke-linejoin="round"/>
<path d="M320.874 310.856L319.626 301.922H307.263L308.098 310.856H320.874Z" fill="#263238" stroke="white" stroke-linecap="round" stroke-linejoin="round"/>
<path d="M282.525 310.856L282.515 301.922H270.141L269.739 310.856H282.525Z" fill="#263238" stroke="white" stroke-linecap="round" stroke-linejoin="round"/>
<path d="M193.031 310.856H180.245L176.714 320.403H189.943L193.031 310.856Z" fill="#263238" stroke="white" stroke-linecap="round" stroke-linejoin="round"/>
<path d="M195.919 301.922H183.555L180.245 310.856H193.031L195.919 301.922Z" fill="#263238" stroke="white" stroke-linecap="round" stroke-linejoin="round"/>
<path d="M205.818 310.856L208.292 301.922H195.918L193.031 310.856H205.818Z" fill="#263238" stroke="white" stroke-linecap="round" stroke-linejoin="round"/>
<path d="M172.931 330.637L168.867 341.64H183.082L186.633 330.637H172.931Z" fill="#263238" stroke="white" stroke-linecap="round" stroke-linejoin="round"/>
<path d="M189.943 320.403H176.714L172.931 330.637H186.633L189.943 320.403Z" fill="#263238" stroke="white" stroke-linecap="round" stroke-linejoin="round"/>
<path d="M186.633 330.637L183.082 341.64H197.297L200.335 330.637H186.633Z" fill="#263238" stroke="white" stroke-linecap="round" stroke-linejoin="round"/>
<path d="M244.176 310.856L245.404 301.922H233.03L231.39 310.856H244.176Z" fill="#263238" stroke="white" stroke-linecap="round" stroke-linejoin="round"/>
<path d="M242.848 320.403L244.176 310.856H231.39L229.629 320.403H242.848Z" fill="#263238" stroke="white" stroke-linecap="round" stroke-linejoin="round"/>
<path d="M229.629 320.403L231.39 310.856H218.604L216.4 320.403H229.629Z" fill="#263238" stroke="white" stroke-linecap="round" stroke-linejoin="round"/>
<path d="M256.077 320.403L256.952 310.856H244.176L242.848 320.403H256.077Z" fill="#263238" stroke="white" stroke-linecap="round" stroke-linejoin="round"/>
<path d="M205.818 310.856H193.031L189.943 320.403H203.172L205.818 310.856Z" fill="#263238" stroke="white" stroke-linecap="round" stroke-linejoin="round"/>
<path d="M364.745 330.637H378.447L375.117 320.403H361.898L364.745 330.637Z" fill="#263238" stroke="white" stroke-linecap="round" stroke-linejoin="round"/>
<path d="M216.401 320.403L218.604 310.856H205.818L203.172 320.403H216.401Z" fill="#263238" stroke="white" stroke-linecap="round" stroke-linejoin="round"/>
<path d="M189.943 320.403L186.633 330.637H200.335L203.172 320.403H189.943Z" fill="#263238" stroke="white" stroke-linecap="round" stroke-linejoin="round"/>
<path d="M335.44 320.403L333.66 310.856H320.874L322.212 320.403H335.44Z" fill="#263238" stroke="white" stroke-linecap="round" stroke-linejoin="round"/>
<path d="M322.212 320.403L320.874 310.856H308.098L308.983 320.403H322.212Z" fill="#263238" stroke="white" stroke-linecap="round" stroke-linejoin="round"/>
<path d="M361.898 320.403L359.233 310.856H346.446L348.67 320.403H361.898Z" fill="#263238" stroke="white" stroke-linecap="round" stroke-linejoin="round"/>
<path d="M282.535 320.403L282.525 310.856H269.739L269.306 320.403H282.535Z" fill="#263238" stroke="white" stroke-linecap="round" stroke-linejoin="round"/>
<path d="M308.983 320.403L308.097 310.856H295.311L295.764 320.403H308.983Z" fill="#263238" stroke="white" stroke-linecap="round" stroke-linejoin="round"/>
<path d="M295.764 320.403L295.311 310.856H282.525L282.535 320.403H295.764Z" fill="#263238" stroke="white" stroke-linecap="round" stroke-linejoin="round"/>
<path d="M269.306 320.403L269.739 310.856H256.952L256.077 320.403H269.306Z" fill="#263238" stroke="white" stroke-linecap="round" stroke-linejoin="round"/>
<path d="M308.983 320.403L309.949 330.637H323.64L322.212 320.403H308.983Z" fill="#263238" stroke="white" stroke-linecap="round" stroke-linejoin="round"/>
<path d="M322.212 320.403L323.64 330.637H337.342L335.441 320.403H322.212Z" fill="#263238" stroke="white" stroke-linecap="round" stroke-linejoin="round"/>
<path d="M203.172 320.403L200.335 330.637H214.037L216.401 320.403H203.172Z" fill="#263238" stroke="white" stroke-linecap="round" stroke-linejoin="round"/>
<path d="M335.44 320.403L337.342 330.637H351.043L348.669 320.403H335.44Z" fill="#263238" stroke="white" stroke-linecap="round" stroke-linejoin="round"/>
<path d="M282.535 320.403L282.545 330.637H296.247L295.764 320.403H282.535Z" fill="#263238" stroke="white" stroke-linecap="round" stroke-linejoin="round"/>
<path d="M348.669 320.403L351.044 330.637H364.745L361.898 320.403H348.669Z" fill="#263238" stroke="white" stroke-linecap="round" stroke-linejoin="round"/>
<path d="M295.764 320.403L296.247 330.637H309.949L308.983 320.403H295.764Z" fill="#263238" stroke="white" stroke-linecap="round" stroke-linejoin="round"/>
<path d="M229.63 320.403L227.738 330.637H241.44L242.848 320.403H229.63Z" fill="#263238" stroke="white" stroke-linecap="round" stroke-linejoin="round"/>
<path d="M216.401 320.403L214.037 330.637H227.738L229.63 320.403H216.401Z" fill="#263238" stroke="white" stroke-linecap="round" stroke-linejoin="round"/>
<path d="M269.306 320.403L268.843 330.637H282.545L282.535 320.403H269.306Z" fill="#263238" stroke="white" stroke-linecap="round" stroke-linejoin="round"/>
<path d="M256.077 320.403L255.142 330.637H268.843L269.306 320.403H256.077Z" fill="#263238" stroke="white" stroke-linecap="round" stroke-linejoin="round"/>
<path d="M242.848 320.403L241.44 330.637H255.142L256.077 320.403H242.848Z" fill="#263238" stroke="white" stroke-linecap="round" stroke-linejoin="round"/>
<path d="M348.67 320.403L346.446 310.856H333.66L335.441 320.403H348.67Z" fill="#263238" stroke="white" stroke-linecap="round" stroke-linejoin="round"/>
<path d="M195.918 301.922L198.876 292.77H186.925L183.555 301.922H195.918Z" fill="#263238" stroke="white" stroke-linecap="round" stroke-linejoin="round"/>
<path d="M183.555 301.922H172.127L168.445 310.856H180.245L183.555 301.922Z" fill="#263238" stroke="white" stroke-linecap="round" stroke-linejoin="round"/>
<path d="M186.925 292.77H175.899L172.126 301.922H183.555L186.925 292.77Z" fill="#263238" stroke="white" stroke-linecap="round" stroke-linejoin="round"/>
<path d="M180.245 310.856H168.445L164.511 320.403H176.714L180.245 310.856Z" fill="#263238" stroke="white" stroke-linecap="round" stroke-linejoin="round"/>
<path d="M176.714 320.403H164.511L160.286 330.637H172.932L176.714 320.403Z" fill="#263238" stroke="white" stroke-linecap="round" stroke-linejoin="round"/>
<path d="M172.931 330.637H160.286L155.749 341.64H168.867L172.931 330.637Z" fill="#263238" stroke="white" stroke-linecap="round" stroke-linejoin="round"/>
<path d="M384.795 310.856L388.346 320.403H400.046L396.112 310.856H384.795Z" fill="#263238" stroke="white" stroke-linecap="round" stroke-linejoin="round"/>
<path d="M392.149 330.637H404.271L400.046 320.403H388.346L392.149 330.637Z" fill="#263238" stroke="white" stroke-linecap="round" stroke-linejoin="round"/>
<path d="M396.233 341.64H408.808L404.271 330.637H392.149L396.233 341.64Z" fill="#263238" stroke="white" stroke-linecap="round" stroke-linejoin="round"/>
<path d="M294.889 301.922L294.456 292.77H282.505L282.515 301.922H294.889Z" fill="#263238" stroke="white" stroke-linecap="round" stroke-linejoin="round"/>
<path d="M384.795 310.856H396.113L392.431 301.922H381.485L384.795 310.856Z" fill="#263238" stroke="white" stroke-linecap="round" stroke-linejoin="round"/>
<path d="M378.447 330.637H392.149L388.346 320.403H375.117L378.447 330.637Z" fill="#263238" stroke="white" stroke-linecap="round" stroke-linejoin="round"/>
<path d="M208.292 301.922L210.827 292.77H198.876L195.918 301.922H208.292Z" fill="#263238" stroke="white" stroke-linecap="round" stroke-linejoin="round"/>
<path d="M369.111 301.922L372.019 310.856H384.795L381.485 301.922H369.111Z" fill="#263238" stroke="white" stroke-linecap="round" stroke-linejoin="round"/>
<path d="M392.431 301.922L388.658 292.77H378.085L381.485 301.922H392.431Z" fill="#263238" stroke="white" stroke-linecap="round" stroke-linejoin="round"/>
<path d="M381.485 301.922L378.085 292.77H366.144L369.111 301.922H381.485Z" fill="#263238" stroke="white" stroke-linecap="round" stroke-linejoin="round"/>
<path d="M337.342 330.637L339.394 341.64H353.599L351.044 330.637H337.342Z" fill="#263238" stroke="white" stroke-linecap="round" stroke-linejoin="round"/>
<path d="M382.019 341.64H396.233L392.149 330.637H378.447L382.019 341.64Z" fill="#263238" stroke="white" stroke-linecap="round" stroke-linejoin="round"/>
<path d="M369.111 301.922L366.144 292.77H354.192L356.738 301.922H369.111Z" fill="#263238" stroke="white" stroke-linecap="round" stroke-linejoin="round"/>
<path d="M364.746 330.637L367.814 341.64H382.019L378.447 330.637H364.746Z" fill="#263238" stroke="white" stroke-linecap="round" stroke-linejoin="round"/>
<path d="M351.043 330.637L353.599 341.64H367.813L364.745 330.637H351.043Z" fill="#263238" stroke="white" stroke-linecap="round" stroke-linejoin="round"/>
<path d="M375.117 320.403H388.346L384.795 310.856H372.019L375.117 320.403Z" fill="#263238" stroke="white" stroke-linecap="round" stroke-linejoin="round"/>
<path d="M257.778 301.922L258.613 292.77H246.661L245.404 301.922H257.778Z" fill="#263238" stroke="white" stroke-linecap="round" stroke-linejoin="round"/>
<path d="M356.738 301.922L354.192 292.77H342.241L344.374 301.922H356.738Z" fill="#263238" stroke="white" stroke-linecap="round" stroke-linejoin="round"/>
<path d="M245.404 301.922L246.661 292.77H234.72L233.03 301.922H245.404Z" fill="#263238" stroke="white" stroke-linecap="round" stroke-linejoin="round"/>
<path d="M282.515 301.922L282.505 292.77H270.564L270.141 301.922H282.515Z" fill="#263238" stroke="white" stroke-linecap="round" stroke-linejoin="round"/>
<path d="M233.03 301.922L234.72 292.77H222.769L220.666 301.922H233.03Z" fill="#263238" stroke="white" stroke-linecap="round" stroke-linejoin="round"/>
<path d="M220.666 301.922L222.769 292.77H210.828L208.292 301.922H220.666Z" fill="#263238" stroke="white" stroke-linecap="round" stroke-linejoin="round"/>
<path d="M270.141 301.922L270.564 292.77H258.612L257.777 301.922H270.141Z" fill="#263238" stroke="white" stroke-linecap="round" stroke-linejoin="round"/>
<path d="M344.374 301.922L342.241 292.77H330.3L332 301.922H344.374Z" fill="#263238" stroke="white" stroke-linecap="round" stroke-linejoin="round"/>
<path d="M332 301.922L330.3 292.77H318.349L319.626 301.922H332Z" fill="#263238" stroke="white" stroke-linecap="round" stroke-linejoin="round"/>
<path d="M307.262 301.922L306.397 292.77H294.456L294.889 301.922H307.262Z" fill="#263238" stroke="white" stroke-linecap="round" stroke-linejoin="round"/>
<path d="M337.342 330.637H323.64H309.949H296.247H282.545H268.844H255.142H241.44H227.738H214.037H200.335L197.297 341.64H211.502H225.716H239.921H254.136H268.341H282.555H296.76H310.975H325.18H339.394L337.342 330.637Z" fill="#263238" stroke="white" stroke-linecap="round" stroke-linejoin="round"/>
<path d="M319.626 301.922L318.349 292.77H306.397L307.263 301.922H319.626Z" fill="#263238" stroke="white" stroke-linecap="round" stroke-linejoin="round"/>
<path d="M431.825 360.953H127.319V365.425H431.825V360.953Z" fill="#263238" stroke="#263238" stroke-linecap="round" stroke-linejoin="round"/>
<path d="M154.21 471.193C154.21 471.193 176.704 422.438 180.165 413.046C183.625 403.655 232.084 379.943 234.68 375.44C237.275 370.937 240.716 357.105 243.342 351.291C245.967 345.478 243.774 343.231 245.504 338.312C247.235 333.393 250.263 327.579 245.937 327.579C241.611 327.579 235.988 332.498 233.815 340.548C231.642 348.598 223 355.316 223 355.316L223.433 349.95C223.865 344.573 229.056 328.026 231.219 324.449C233.382 320.871 246.37 306.561 248.1 306.114C249.83 305.666 253.723 309.691 257.617 309.691C261.51 309.691 262.375 306.571 260.212 304.772C258.049 302.973 256.319 297.159 251.158 293.582C245.997 290.004 240.344 293.582 240.344 293.582C238.9 291.098 237.311 288.709 235.585 286.426C233.412 283.743 229.086 279.271 223.463 277.93C221.816 277.541 220.106 277.54 218.458 277.927C216.811 278.314 215.269 279.079 213.946 280.166C211.954 279.738 209.938 279.439 207.91 279.271C203.584 278.824 200.556 281.507 196.231 288.631C191.905 295.755 184.973 309.66 184.973 309.66C184.973 309.66 186.704 296.681 186.704 291.314C186.704 285.948 187.136 280.134 184.973 277.898C182.81 275.662 180.648 278.346 179.782 286.395C178.917 294.445 168.968 322.629 167.71 330.231C166.453 337.834 152.57 379.881 145.206 390.624C137.842 401.367 98.0449 448.323 98.0449 448.323M216.511 312.853C216.511 312.853 222.547 294.954 224.298 294.954C226.048 294.954 232.517 299.874 232.517 299.874L216.511 312.853Z" fill="white"/>
<path d="M154.21 471.193C154.21 471.193 176.704 422.438 180.165 413.046C183.625 403.655 232.084 379.943 234.68 375.44C237.275 370.937 240.716 357.105 243.342 351.291C245.967 345.478 243.774 343.231 245.504 338.312C247.235 333.393 250.263 327.579 245.937 327.579C241.611 327.579 235.988 332.498 233.815 340.548C231.642 348.598 223 355.316 223 355.316L223.433 349.95C223.865 344.573 229.056 328.026 231.219 324.449C233.382 320.871 246.37 306.561 248.1 306.114C249.83 305.666 253.723 309.691 257.617 309.691C261.51 309.691 262.375 306.571 260.212 304.772C258.049 302.973 256.319 297.159 251.158 293.582C245.997 290.004 240.344 293.582 240.344 293.582C238.9 291.098 237.311 288.709 235.585 286.426C233.412 283.743 229.086 279.271 223.463 277.93C221.816 277.541 220.106 277.54 218.458 277.927C216.811 278.314 215.269 279.079 213.946 280.166C211.954 279.738 209.938 279.439 207.91 279.271C203.584 278.824 200.556 281.507 196.231 288.631C191.905 295.755 184.973 309.66 184.973 309.66C184.973 309.66 186.704 296.681 186.704 291.314C186.704 285.948 187.136 280.134 184.973 277.898C182.81 275.662 180.648 278.346 179.782 286.395C178.917 294.445 168.968 322.629 167.71 330.231C166.453 337.834 152.57 379.881 145.206 390.624C137.842 401.367 98.0449 448.323 98.0449 448.323M216.511 312.853C216.511 312.853 222.547 294.954 224.298 294.954C226.048 294.954 232.517 299.874 232.517 299.874L216.511 312.853Z" stroke="#263238" stroke-linecap="round" stroke-linejoin="round"/>
<path d="M164.139 349.669C164.139 349.669 171.513 325.822 172.74 319.686C173.615 315.359 176.714 320.403 176.714 320.403C176.714 320.403 182.75 315.942 182.75 319.686C182.819 322.065 183.611 324.361 185.013 326.248C185.013 326.248 183.655 319.686 190.043 317.814C196.432 315.942 199.097 318.75 197.749 326.248C196.401 333.746 198.655 330.928 200.013 329.056C201.371 327.184 199.56 322.494 207.719 319.218C215.878 315.942 220.415 319.218 219.046 326.248C217.678 333.278 215.425 339.362 215.425 349.669C215.425 359.975 217.236 369.346 219.046 369.346C220.857 369.346 230.837 358.571 232.648 365.602C234.458 372.632 230.837 372.632 221.32 381.056C211.803 389.48 186.875 396.521 182.8 404.976C178.726 413.431 176 418.558 173.284 419.026C170.567 419.494 166.03 402.636 152.882 404.466C139.733 406.297 126.142 419.931 129.321 414.305C132.5 408.678 144.27 399.745 151.071 383.854C157.872 367.962 164.139 349.669 164.139 349.669Z" fill="#A7C1F4"/>
<path opacity="0.4" d="M164.139 349.669C164.139 349.669 171.513 325.822 172.74 319.686C173.615 315.359 176.714 320.403 176.714 320.403C176.714 320.403 182.75 315.942 182.75 319.686C182.819 322.065 183.611 324.361 185.013 326.248C185.013 326.248 183.655 319.686 190.043 317.814C196.432 315.942 199.097 318.75 197.749 326.248C196.401 333.746 198.655 330.928 200.013 329.056C201.371 327.184 199.56 322.494 207.719 319.218C215.878 315.942 220.415 319.218 219.046 326.248C217.678 333.278 215.425 339.362 215.425 349.669C215.425 359.975 217.236 369.346 219.046 369.346C220.857 369.346 230.837 358.571 232.648 365.602C234.458 372.632 230.837 372.632 221.32 381.056C211.803 389.48 186.875 396.521 182.8 404.976C178.726 413.431 176 418.558 173.284 419.026C170.567 419.494 166.03 402.636 152.882 404.466C139.733 406.297 126.142 419.931 129.321 414.305C132.5 408.678 144.27 399.745 151.071 383.854C157.872 367.962 164.139 349.669 164.139 349.669Z" fill="white"/>
<path d="M213.916 280.197C213.916 280.197 201.844 301.673 199.208 306.145C196.572 310.617 194.45 314.642 191.412 316.43C188.374 318.219 186.221 322.244 187.086 323.586" fill="white"/>
<path d="M213.916 280.197C213.916 280.197 201.844 301.673 199.208 306.145C196.572 310.617 194.45 314.642 191.412 316.43C188.374 318.219 186.221 322.244 187.086 323.586" stroke="#263238" stroke-linecap="round" stroke-linejoin="round"/>
<path d="M184.923 309.722C183.586 312.255 181.829 314.525 179.732 316.43C176.271 319.55 172.378 322.244 171.513 325.79C170.921 328.058 169.894 330.18 168.495 332.03" fill="white"/>
<path d="M184.923 309.722C183.586 312.255 181.829 314.525 179.732 316.43C176.271 319.55 172.378 322.244 171.513 325.79C170.921 328.058 169.894 330.18 168.495 332.03" stroke="#263238" stroke-linecap="round" stroke-linejoin="round"/>
<path d="M216.512 312.853C216.512 312.853 207.86 318.666 205.697 320.455C203.534 322.244 202.679 326.269 202.679 326.269" fill="white"/>
<path d="M216.512 312.853C216.512 312.853 207.86 318.666 205.697 320.455C203.534 322.244 202.679 326.269 202.679 326.269" stroke="#263238" stroke-linecap="round" stroke-linejoin="round"/>
<path d="M240.314 293.613L232.517 299.874" stroke="#263238" stroke-linecap="round" stroke-linejoin="round"/>
<path d="M450.749 443.154C450.749 443.154 411.374 403.354 408.346 395.314C405.318 387.275 406.183 385.476 403.587 379.714C400.992 373.953 393.205 364 392.773 356.834C392.34 349.669 388.88 332.675 388.88 326.862C388.88 321.048 387.582 312.551 385.862 311.21C384.141 309.868 374.604 307.622 374.604 307.622C374.604 307.622 369.413 290.628 365.55 289.734C361.687 288.839 353.83 293.28 353.83 293.28C353.83 293.28 352.1 290.16 349.937 285.23C347.774 280.301 343.901 280.311 339.123 282.11C334.344 283.91 324.838 287.924 324.838 287.924C324.838 287.924 314.023 279.427 310.562 284.804C307.102 290.181 302.776 300.009 301.911 303.586C301.046 307.164 307.031 307.039 308.329 306.145C309.627 305.25 314.496 301.548 314.496 301.548C314.496 301.548 323.972 308.953 325.703 312.988C327.433 317.023 330.894 335.795 331.326 339.373C331.759 342.95 330.029 354.13 330.029 354.13C330.029 354.13 321.81 338.926 317.957 334.454C314.104 329.982 308.44 327.298 304.114 327.298C299.788 327.298 296.76 332.218 300.221 334.454C303.681 336.69 307.575 339.373 308.44 342.503C309.305 345.634 317.957 361.743 318.822 367.557C319.687 373.37 325.743 384.998 331.367 388.575C336.99 392.153 357.764 396.625 361.657 400.66C365.55 404.695 393.246 461.49 393.246 461.49M332.624 296.4H339.555L346.909 311.168L332.624 296.4Z" fill="white"/>
<path d="M450.749 443.154C450.749 443.154 411.374 403.354 408.346 395.314C405.318 387.275 406.183 385.476 403.587 379.714C400.992 373.953 393.205 364 392.773 356.834C392.34 349.669 388.88 332.675 388.88 326.862C388.88 321.048 387.582 312.551 385.862 311.21C384.141 309.868 374.604 307.622 374.604 307.622C374.604 307.622 369.413 290.628 365.55 289.734C361.687 288.839 353.83 293.28 353.83 293.28C353.83 293.28 352.1 290.16 349.937 285.23C347.774 280.301 343.901 280.311 339.123 282.11C334.344 283.91 324.838 287.924 324.838 287.924C324.838 287.924 314.023 279.427 310.562 284.804C307.102 290.181 302.776 300.009 301.911 303.586C301.046 307.164 307.031 307.039 308.329 306.145C309.627 305.25 314.496 301.548 314.496 301.548C314.496 301.548 323.972 308.953 325.703 312.988C327.433 317.023 330.894 335.795 331.326 339.373C331.759 342.95 330.029 354.13 330.029 354.13C330.029 354.13 321.81 338.926 317.957 334.454C314.104 329.982 308.44 327.298 304.114 327.298C299.788 327.298 296.76 332.218 300.221 334.454C303.681 336.69 307.575 339.373 308.44 342.503C309.305 345.634 317.957 361.743 318.822 367.557C319.687 373.37 325.743 384.998 331.367 388.575C336.99 392.153 357.764 396.625 361.657 400.66C365.55 404.695 393.246 461.49 393.246 461.49M332.624 296.4H339.555L346.909 311.168L332.624 296.4Z" stroke="#263238" stroke-linecap="round" stroke-linejoin="round"/>
<path d="M387.562 333.268C387.562 333.268 382.532 318.708 376.687 321.558C370.842 324.407 369.886 325.78 369.886 325.78C369.886 325.78 366.707 320.58 361.275 322.494C355.842 324.407 354.021 320.622 354.021 320.622C354.021 320.622 346.768 315.942 342.241 319.686C337.714 323.43 341.336 333.736 343.147 342.17C344.957 350.605 340.883 367.006 339.978 368.41C339.072 369.814 326.829 364.198 325.471 369.346C324.113 374.494 329.545 385.746 340.43 389.49C351.315 393.234 359.464 395.117 363.568 399.329C367.673 403.541 378.075 434.002 387.139 436.342C396.203 438.682 406.172 425.1 415.689 426.036C425.206 426.972 437.439 434.002 432.459 427.908C427.48 421.814 406.625 399.828 405.297 391.841C403.969 383.854 398.949 378.248 396.686 374.504C394.422 370.76 390.328 348.265 388.92 342.16C388.182 339.25 387.727 336.271 387.562 333.268Z" fill="#A7C1F4"/>
<path opacity="0.4" d="M387.562 333.268C387.562 333.268 382.532 318.708 376.687 321.558C370.842 324.407 369.886 325.78 369.886 325.78C369.886 325.78 366.707 320.58 361.275 322.494C355.842 324.407 354.021 320.622 354.021 320.622C354.021 320.622 346.768 315.942 342.241 319.686C337.714 323.43 341.336 333.736 343.147 342.17C344.957 350.605 340.883 367.006 339.978 368.41C339.072 369.814 326.829 364.198 325.471 369.346C324.113 374.494 329.545 385.746 340.43 389.49C351.315 393.234 359.464 395.117 363.568 399.329C367.673 403.541 378.075 434.002 387.139 436.342C396.203 438.682 406.172 425.1 415.689 426.036C425.206 426.972 437.439 434.002 432.459 427.908C427.48 421.814 406.625 399.828 405.297 391.841C403.969 383.854 398.949 378.248 396.686 374.504C394.422 370.76 390.328 348.265 388.92 342.16C388.182 339.25 387.727 336.271 387.562 333.268Z" fill="white"/>
<path d="M353.831 293.28L359.867 304.907C359.867 304.907 362.331 311.012 364.826 313.581C367.321 316.15 369.494 318.084 370.43 321.308C371.365 324.532 371.667 326.134 371.667 326.134" fill="white"/>
<path d="M353.831 293.28L359.867 304.907C359.867 304.907 362.331 311.012 364.826 313.581C367.321 316.15 369.494 318.084 370.43 321.308C371.365 324.532 371.667 326.134 371.667 326.134" stroke="#263238" stroke-linecap="round" stroke-linejoin="round"/>
<path d="M374.594 307.622L380.66 320.601" stroke="#263238" stroke-linecap="round" stroke-linejoin="round"/>
<path d="M324.837 287.945L332.624 296.442" stroke="#263238" stroke-linecap="round" stroke-linejoin="round"/>
<path d="M382.28 323.586C382.413 326.288 382.725 328.977 383.216 331.635L382.28 323.586Z" fill="white"/>
<path d="M382.28 323.586C382.413 326.288 382.725 328.977 383.216 331.635" stroke="#263238" stroke-linecap="round" stroke-linejoin="round"/>
<path d="M351.154 316.16C351.154 316.16 354.887 319.051 355.51 322.91L351.154 316.16Z" fill="white"/>
<path d="M351.154 316.16C351.154 316.16 354.887 319.051 355.51 322.91" stroke="#263238" stroke-linecap="round" stroke-linejoin="round"/>
<path d="M314.496 301.6C314.496 301.6 311.076 300.186 311.076 297.357L314.496 301.6Z" fill="white"/>
<path d="M314.496 301.6C314.496 301.6 311.076 300.186 311.076 297.357" stroke="#263238" stroke-linecap="round" stroke-linejoin="round"/>
<path d="M339.555 296.4C339.555 296.4 337.081 294.434 337.081 291.959L339.555 296.4Z" fill="white"/>
<path d="M339.555 296.4C339.555 296.4 337.081 294.434 337.081 291.959" stroke="#263238" stroke-linecap="round" stroke-linejoin="round"/>
</svg>
