<svg width="500" height="500" viewBox="0 0 500 500" fill="none" xmlns="http://www.w3.org/2000/svg">
<path d="M382.22 191.91C336.12 142.37 220.84 101.39 154.92 121.69C92.9198 140.81 53.9198 217.24 100.24 268.39C153.58 327.28 245.47 351.62 320.92 341.28C389.77 331.84 438.24 252.11 382.22 191.91Z" fill="#407BFF"/>
<path opacity="0.9" d="M382.22 191.91C336.12 142.37 220.84 101.39 154.92 121.69C92.9198 140.81 53.9198 217.24 100.24 268.39C153.58 327.28 245.47 351.62 320.92 341.28C389.77 331.84 438.24 252.11 382.22 191.91Z" fill="white"/>
<path d="M250 427.56C357.082 427.56 443.89 422.492 443.89 416.24C443.89 409.988 357.082 404.92 250 404.92C142.917 404.92 56.1099 409.988 56.1099 416.24C56.1099 422.492 142.917 427.56 250 427.56Z" fill="#F5F5F5"/>
<g opacity="0.2">
<path d="M360.73 407.87L297.04 290.15L233.35 407.87H360.73Z" fill="#407BFF"/>
<path d="M360.73 208.72L297.04 326.43L233.35 208.72H360.73Z" fill="#407BFF"/>
</g>
<path d="M308.71 278.22L299.39 295.44C299.161 295.864 298.822 296.218 298.408 296.465C297.995 296.712 297.522 296.843 297.04 296.843C296.558 296.843 296.085 296.712 295.672 296.465C295.258 296.218 294.919 295.864 294.69 295.44L285.37 278.22C284.53 276.664 284.108 274.915 284.147 273.147C284.186 271.379 284.683 269.651 285.59 268.132C286.498 266.614 287.784 265.358 289.323 264.486C290.862 263.614 292.601 263.157 294.37 263.16H299.76C301.525 263.166 303.257 263.629 304.79 264.504C306.322 265.38 307.601 266.637 308.503 268.154C309.404 269.671 309.897 271.395 309.933 273.16C309.97 274.924 309.548 276.667 308.71 278.22Z" fill="#407BFF"/>
<path d="M298.05 378.15L327 390.05C327.565 390.288 328.031 390.714 328.319 391.255C328.608 391.796 328.701 392.419 328.584 393.021C328.466 393.623 328.146 394.166 327.675 394.559C327.205 394.952 326.613 395.171 326 395.18H268.13C267.517 395.171 266.926 394.952 266.455 394.559C265.985 394.166 265.664 393.623 265.547 393.021C265.43 392.419 265.523 391.796 265.811 391.255C266.1 390.714 266.565 390.288 267.13 390.05L296 378.15C296.325 378.014 296.673 377.944 297.025 377.944C297.377 377.944 297.726 378.014 298.05 378.15Z" fill="#407BFF"/>
<path d="M297.04 355.51C299.089 355.51 300.75 353.849 300.75 351.8C300.75 349.751 299.089 348.09 297.04 348.09C294.991 348.09 293.33 349.751 293.33 351.8C293.33 353.849 294.991 355.51 297.04 355.51Z" fill="#407BFF"/>
<path d="M297.04 314.96C298.095 314.96 298.95 314.105 298.95 313.05C298.95 311.995 298.095 311.14 297.04 311.14C295.985 311.14 295.13 311.995 295.13 313.05C295.13 314.105 295.985 314.96 297.04 314.96Z" fill="#407BFF"/>
<path d="M297.04 333.69C298.239 333.69 299.21 332.718 299.21 331.52C299.21 330.322 298.239 329.35 297.04 329.35C295.842 329.35 294.87 330.322 294.87 331.52C294.87 332.718 295.842 333.69 297.04 333.69Z" fill="#407BFF"/>
<path d="M360.41 402.06H233.67C232.132 402.065 230.658 402.679 229.571 403.768C228.484 404.857 227.873 406.332 227.87 407.87C227.875 409.407 228.488 410.879 229.575 411.965C230.661 413.052 232.133 413.665 233.67 413.67H360.41C361.947 413.665 363.419 413.052 364.506 411.965C365.592 410.879 366.205 409.407 366.21 407.87C366.207 406.332 365.596 404.857 364.509 403.768C363.422 402.679 361.948 402.065 360.41 402.06Z" fill="#407BFF"/>
<path d="M360.41 202.92H233.67C232.133 202.925 230.661 203.538 229.575 204.625C228.488 205.711 227.875 207.183 227.87 208.72C227.875 210.257 228.488 211.729 229.575 212.815C230.661 213.902 232.133 214.515 233.67 214.52H360.41C361.947 214.515 363.419 213.902 364.506 212.815C365.592 211.729 366.205 210.257 366.21 208.72C366.205 207.183 365.592 205.711 364.506 204.625C363.419 203.538 361.947 202.925 360.41 202.92Z" fill="#407BFF"/>
<path d="M194.63 405.68L187.58 403.39L191.96 386.76L199.01 389.05L194.63 405.68Z" fill="#FF8B7B"/>
<path d="M187.47 402.45L195.39 405.02C195.524 405.06 195.637 405.149 195.706 405.271C195.775 405.392 195.794 405.535 195.76 405.67L194.11 412.07C194.004 412.4 193.773 412.674 193.465 412.833C193.158 412.993 192.8 413.024 192.47 412.92C189.73 411.98 188.47 411.39 184.98 410.26C182.83 409.56 175.77 407.74 172.81 406.78C169.85 405.82 170.88 402.92 172.22 403.06C178.22 403.69 183.62 403.41 186.12 402.49C186.553 402.328 187.028 402.314 187.47 402.45Z" fill="#263238"/>
<path opacity="0.2" d="M199.01 389.06L191.96 386.76L189.7 395.34L196.76 397.63L199.01 389.06Z" fill="black"/>
<path d="M218.28 220.72C218.28 220.72 205.63 279.27 202.66 300.32C199.41 323.37 187.2 392.59 187.2 392.59L200.29 396.21C200.29 396.21 218.43 329.08 223.73 306.67C229.48 282.34 244.73 220.67 244.73 220.67L218.28 220.72Z" fill="#407BFF"/>
<path opacity="0.3" d="M233.92 239.92C228.92 251.26 226.45 275.92 228.39 287.27C231.93 272.72 236.19 255.42 239.48 242.11C238.37 238.25 236.53 234 233.92 239.92Z" fill="black"/>
<path d="M200.62 396.47L186.6 392.61L186.88 386.9L202.66 392.35L200.62 396.47Z" fill="#263238"/>
<path d="M184.57 402.87C185.222 403.06 185.893 403.181 186.57 403.23C186.604 403.232 186.637 403.225 186.666 403.209C186.696 403.193 186.72 403.169 186.737 403.14C186.754 403.111 186.762 403.077 186.761 403.044C186.759 403.01 186.749 402.978 186.73 402.95C186.55 402.72 185 400.71 184.03 400.77C183.918 400.775 183.81 400.81 183.716 400.869C183.621 400.929 183.543 401.012 183.49 401.11C183.39 401.255 183.33 401.424 183.316 401.599C183.302 401.775 183.334 401.951 183.41 402.11C183.694 402.494 184.105 402.763 184.57 402.87ZM186.16 402.87C184.82 402.71 183.9 402.37 183.68 401.94C183.634 401.838 183.616 401.726 183.629 401.615C183.641 401.505 183.683 401.399 183.75 401.31C183.775 401.262 183.813 401.221 183.858 401.191C183.904 401.162 183.956 401.144 184.01 401.14C184.53 401.08 185.51 402.06 186.16 402.84V402.87Z" fill="#263238"/>
<path d="M186.5 403.22H186.58C186.609 403.214 186.636 403.201 186.659 403.181C186.682 403.162 186.699 403.138 186.71 403.11C186.71 403.03 187.56 401.05 187.07 400.11C187.009 399.992 186.921 399.889 186.814 399.811C186.706 399.733 186.582 399.681 186.45 399.66C186.308 399.617 186.156 399.624 186.018 399.678C185.88 399.733 185.765 399.832 185.69 399.96C185.28 400.68 185.85 402.49 186.42 403.14L186.5 403.22ZM186.5 400.05C186.567 400.069 186.629 400.102 186.683 400.147C186.736 400.192 186.779 400.247 186.81 400.31C186.978 401.115 186.883 401.953 186.54 402.7C186.056 401.952 185.874 401.048 186.03 400.17C186.03 400.08 186.17 399.98 186.42 400.03L186.5 400.05Z" fill="#263238"/>
<path d="M231.74 165.13C231.36 166.03 231.04 166.71 230.69 167.47C230.34 168.23 229.96 168.93 229.59 169.65C228.85 171.1 228.07 172.51 227.26 173.92C225.624 176.751 223.821 179.483 221.86 182.1C219.853 184.806 217.629 187.345 215.21 189.69C212.633 192.227 209.711 194.388 206.53 196.11L206.28 196.24C205.875 196.449 205.445 196.604 205 196.7C202.722 197.174 200.363 197.081 198.13 196.43C196.274 195.875 194.509 195.053 192.89 193.99C190.173 192.163 187.735 189.954 185.65 187.43C183.713 185.128 181.951 182.685 180.38 180.12C178.828 177.599 177.448 174.977 176.25 172.27C175.941 171.554 175.901 170.751 176.137 170.008C176.373 169.265 176.868 168.632 177.533 168.224C178.198 167.817 178.987 167.663 179.756 167.791C180.525 167.919 181.223 168.32 181.72 168.92L181.82 169.04C183.47 171.04 185.26 173.17 187.06 175.11C188.814 177.042 190.677 178.871 192.64 180.59C194.375 182.163 196.304 183.507 198.38 184.59C199.156 184.989 199.989 185.266 200.85 185.41C201.332 185.5 201.829 185.458 202.29 185.29L200.76 185.88C202.827 184.487 204.711 182.84 206.37 180.98C208.176 178.952 209.846 176.807 211.37 174.56C212.95 172.26 214.45 169.85 215.86 167.37C216.58 166.14 217.27 164.89 217.92 163.62L218.92 161.73C219.23 161.12 219.57 160.42 219.81 159.93L219.87 159.79C220.599 158.252 221.902 157.061 223.5 156.473C225.098 155.885 226.862 155.948 228.414 156.647C229.966 157.347 231.182 158.627 231.8 160.213C232.418 161.799 232.39 163.565 231.72 165.13H231.74Z" fill="#263238"/>
<path opacity="0.3" d="M215.39 178.71C218.53 170.37 225.2 170.23 228.09 172.44C227.88 172.83 227.66 173.22 227.44 173.61C225.871 176.34 224.152 178.981 222.29 181.52C220.379 184.132 218.276 186.599 216 188.9C215.28 189.61 214.54 190.31 213.77 190.99C213.505 186.83 214.055 182.659 215.39 178.71Z" fill="black"/>
<path d="M176 172.79L169.5 173.03L171.12 166.08C173.358 166.191 175.579 166.526 177.75 167.08C178.145 167.2 178.507 167.411 178.805 167.696C179.104 167.982 179.331 168.333 179.468 168.723C179.606 169.112 179.649 169.529 179.596 169.938C179.542 170.348 179.393 170.739 179.16 171.08C178.808 171.597 178.338 172.022 177.788 172.319C177.238 172.617 176.625 172.778 176 172.79Z" fill="#FF8B7B"/>
<path d="M179.64 166.92C179.002 166.414 178.272 166.037 177.49 165.81C176.95 168.65 173.49 173.44 173.49 173.44H176.2C176.549 173.441 176.894 173.365 177.21 173.219C177.526 173.072 177.806 172.857 178.03 172.59L179.93 170.31C180.138 170.07 180.296 169.792 180.395 169.49C180.493 169.188 180.53 168.87 180.503 168.554C180.475 168.237 180.385 167.93 180.237 167.649C180.089 167.369 179.886 167.121 179.64 166.92Z" fill="#407BFF"/>
<path d="M164.52 169.83L166.34 164.93L171.1 166.09L169.48 173.03L164.52 169.83Z" fill="#FF8B7B"/>
<path d="M246.25 408.92H238.84L238.58 391.75H245.99L246.25 408.92Z" fill="#FF8B7B"/>
<path d="M238.45 408.06H246.78C246.85 408.057 246.919 408.068 246.985 408.093C247.05 408.117 247.11 408.154 247.161 408.201C247.212 408.248 247.253 408.305 247.282 408.369C247.311 408.432 247.328 408.5 247.33 408.57L247.73 415.16C247.73 415.507 247.594 415.839 247.351 416.086C247.107 416.333 246.777 416.475 246.43 416.48C243.53 416.43 242.15 416.26 238.43 416.26C236.18 416.26 228.65 416.49 225.54 416.49C222.43 416.49 222.54 413.41 223.83 413.13C229.75 411.89 235.03 410.13 237.12 408.52C237.496 408.216 237.967 408.053 238.45 408.06Z" fill="#263238"/>
<path opacity="0.2" d="M246 391.76H238.58L238.72 400.61H246.13L246 391.76Z" fill="black"/>
<path d="M232.74 220.72C232.74 220.72 229.91 285.13 231.11 306.36C232.43 329.6 235.19 398.47 235.19 398.47H248.77C248.77 398.47 252.19 331.47 253.01 308.47C253.9 283.47 257.93 220.72 257.93 220.72H232.74Z" fill="#407BFF"/>
<path d="M249.32 398.47H234.65L233.53 393.01L249.72 393.82L249.32 398.47Z" fill="#263238"/>
<path d="M235.82 409.35C236.494 409.333 237.164 409.246 237.82 409.09C237.852 409.079 237.88 409.061 237.903 409.037C237.926 409.012 237.942 408.982 237.95 408.95C237.954 408.918 237.949 408.886 237.937 408.856C237.925 408.826 237.905 408.8 237.88 408.78C237.64 408.61 235.54 407.18 234.63 407.54C234.529 407.581 234.44 407.646 234.37 407.73C234.3 407.813 234.252 407.913 234.23 408.02C234.184 408.183 234.181 408.354 234.219 408.518C234.258 408.683 234.337 408.835 234.45 408.96C234.843 409.254 235.331 409.393 235.82 409.35ZM237.32 408.84C235.99 409.1 235.02 409.06 234.67 408.72C234.598 408.636 234.549 408.535 234.528 408.426C234.507 408.317 234.515 408.205 234.55 408.1C234.557 408.047 234.579 407.996 234.612 407.954C234.646 407.912 234.69 407.879 234.74 407.86C235.23 407.67 236.46 408.29 237.32 408.84Z" fill="#263238"/>
<path d="M237.76 409.09C237.786 409.098 237.814 409.098 237.84 409.09C237.865 409.076 237.886 409.055 237.902 409.031C237.918 409.007 237.927 408.979 237.93 408.95C237.93 408.86 238.1 406.73 237.35 406.01C237.255 405.917 237.139 405.847 237.013 405.805C236.886 405.763 236.752 405.751 236.62 405.77C236.474 405.776 236.333 405.83 236.221 405.924C236.109 406.018 236.031 406.147 236 406.29C235.82 407.1 236.93 408.65 237.67 409.09C237.699 409.099 237.731 409.099 237.76 409.09ZM236.76 406.09C236.829 406.088 236.897 406.101 236.961 406.126C237.024 406.152 237.082 406.191 237.13 406.24C237.543 406.953 237.715 407.781 237.62 408.6C236.98 408.05 236.24 406.87 236.35 406.34C236.35 406.24 236.43 406.12 236.68 406.09H236.76Z" fill="#263238"/>
<path d="M261.64 160.94C261.751 160.315 261.735 159.674 261.592 159.055C261.449 158.436 261.183 157.853 260.81 157.339C260.436 156.826 259.963 156.393 259.418 156.067C258.874 155.74 258.269 155.527 257.64 155.44H257.56C255.17 155.09 252.17 154.73 249.23 154.59C243.618 154.27 237.992 154.27 232.38 154.59C229.79 154.83 227.26 155.26 225.24 155.65H225.16C223.897 155.905 222.728 156.5 221.778 157.37C220.828 158.241 220.134 159.354 219.77 160.59C217.35 168.74 214.46 185.38 218.24 220.71H257.89C258.17 217.17 257.38 205.65 257.96 190.98C258.539 180.898 259.769 170.864 261.64 160.94Z" fill="#263238"/>
<path opacity="0.3" d="M261.26 163.12C260.44 167.86 259.43 174.31 258.73 181.12C258.73 181.12 255.11 174.02 254.45 167.95C253.79 161.88 259 161.42 261.26 163.12Z" fill="black"/>
<g opacity="0.2">
<path d="M234.67 164.06C234.588 164.056 234.509 164.026 234.445 163.973C234.382 163.921 234.337 163.849 234.318 163.769C234.299 163.689 234.306 163.605 234.339 163.529C234.372 163.454 234.428 163.391 234.5 163.35L246.86 156.94C246.948 156.897 247.049 156.89 247.142 156.92C247.235 156.95 247.313 157.014 247.36 157.1C247.406 157.189 247.415 157.292 247.385 157.388C247.355 157.483 247.288 157.563 247.2 157.61L234.84 164C234.788 164.031 234.73 164.051 234.67 164.06Z" fill="white"/>
<path d="M240.33 164.64C240.281 164.642 240.232 164.633 240.188 164.614C240.143 164.595 240.102 164.566 240.07 164.53L233.29 157.8C233.223 157.728 233.186 157.633 233.186 157.535C233.186 157.437 233.223 157.342 233.29 157.27C233.361 157.201 233.456 157.162 233.555 157.162C233.654 157.162 233.749 157.201 233.82 157.27L240.59 164.01C240.659 164.081 240.698 164.176 240.698 164.275C240.698 164.374 240.659 164.469 240.59 164.54C240.555 164.573 240.515 164.599 240.47 164.616C240.425 164.633 240.378 164.641 240.33 164.64Z" fill="white"/>
<path d="M249.26 154.58C243.651 154.26 238.029 154.26 232.42 154.58H232.14C232.004 155.095 231.972 155.631 232.046 156.158C232.119 156.686 232.298 157.193 232.57 157.65C233.51 159.15 235.48 159.99 238.44 160.15H239.55C247.55 160.15 250.64 155.29 250.77 155.08L251.05 154.63L249.26 154.58Z" fill="white"/>
</g>
<path d="M233.22 154.52C238.12 153.36 238.98 150.33 238.65 147C238.573 146.166 238.442 145.338 238.26 144.52L244.4 139.42L248.91 135.68C247.66 141.11 246.25 151 249.91 154.62C249.91 154.62 246.91 159.62 238.48 159.18C231.41 158.79 233.22 154.52 233.22 154.52Z" fill="#FF8B7B"/>
<path opacity="0.2" d="M238.26 144.52C238.442 145.338 238.572 146.166 238.65 147C240.94 146.54 244 144.1 244.32 141.76C244.432 140.985 244.459 140.201 244.4 139.42L238.26 144.52Z" fill="black"/>
<path d="M235 118.5C231.67 120.5 232.2 125.5 231.3 129.08C233.42 129.29 236.76 125.52 236.76 125.52L238.76 119.79L235 118.5Z" fill="#263238"/>
<path d="M252.71 128.56C250.58 135.62 249.71 139.85 245.19 142.8C243.736 143.772 242.045 144.328 240.298 144.408C238.551 144.488 236.816 144.089 235.279 143.254C233.743 142.419 232.464 141.18 231.581 139.67C230.698 138.161 230.245 136.439 230.27 134.69C230.27 127.96 233.73 117.54 241.45 116.1C243.114 115.744 244.842 115.833 246.461 116.356C248.08 116.88 249.533 117.82 250.674 119.082C251.815 120.345 252.604 121.885 252.961 123.549C253.318 125.212 253.232 126.94 252.71 128.56Z" fill="#FF8B7B"/>
<path d="M246.06 134.55C251.06 128.75 244.81 125.89 249.92 121.86C244.17 122.13 234.7 121.72 233.01 117.78C231.32 113.84 236.52 108.5 240.85 108C245.85 107.42 244.77 113.61 244.77 113.61C244.77 113.61 263.9 112.42 257.83 120.61C262.43 120.33 261.16 127.77 253.16 134.05C251.15 134.72 246.06 134.55 246.06 134.55Z" fill="#263238"/>
<path d="M256.68 120.71C256.68 120.71 260.62 119.54 260.49 116.42C261.91 117.4 262.06 120.38 256.68 120.71Z" fill="#263238"/>
<path d="M253.88 135.93C252.729 137.352 251.122 138.33 249.33 138.7C247.06 139.11 246.53 137.01 247.66 134.96C248.66 133.12 251.09 130.69 253.13 131.2C255.17 131.71 255.33 134.14 253.88 135.93Z" fill="#FF8B7B"/>
<path d="M241.32 128.38C241.18 128.96 240.76 129.38 240.37 129.29C239.98 129.2 239.79 128.68 239.93 128.1C240.07 127.52 240.49 127.1 240.87 127.18C241.25 127.26 241.46 127.79 241.32 128.38Z" fill="#263238"/>
<path d="M234.69 127.05C234.55 127.63 234.13 128.05 233.75 127.97C233.37 127.89 233.16 127.36 233.3 126.78C233.44 126.2 233.86 125.78 234.24 125.86C234.62 125.94 234.83 126.47 234.69 127.05Z" fill="#263238"/>
<path d="M236.73 127.76C235.601 129.406 234.256 130.893 232.73 132.18C233.07 132.546 233.486 132.834 233.949 133.022C234.412 133.211 234.911 133.295 235.41 133.27L236.73 127.76Z" fill="#FF5652"/>
<path d="M237.45 135.31C238.142 135.375 238.841 135.299 239.503 135.085C240.164 134.872 240.776 134.527 241.3 134.07C241.317 134.055 241.331 134.037 241.34 134.016C241.349 133.995 241.354 133.973 241.354 133.95C241.354 133.927 241.349 133.905 241.34 133.884C241.331 133.863 241.317 133.845 241.3 133.83C241.267 133.798 241.222 133.78 241.175 133.78C241.129 133.78 241.084 133.798 241.05 133.83C240.475 134.319 239.795 134.668 239.063 134.85C238.331 135.032 237.567 135.042 236.83 134.88C236.808 134.876 236.785 134.876 236.763 134.881C236.74 134.885 236.719 134.895 236.701 134.908C236.682 134.921 236.666 134.937 236.654 134.957C236.642 134.976 236.634 134.998 236.63 135.02C236.621 135.066 236.631 135.114 236.657 135.154C236.683 135.193 236.724 135.22 236.77 135.23L237.45 135.31Z" fill="#263238"/>
<path d="M243.88 126.76C243.935 126.778 243.995 126.778 244.05 126.76C244.092 126.742 244.13 126.715 244.161 126.682C244.193 126.648 244.217 126.609 244.233 126.566C244.249 126.523 244.256 126.478 244.254 126.432C244.252 126.386 244.24 126.341 244.22 126.3C244.005 125.789 243.668 125.338 243.237 124.989C242.806 124.641 242.295 124.404 241.75 124.3C241.658 124.288 241.564 124.313 241.49 124.369C241.415 124.425 241.365 124.508 241.35 124.6C241.345 124.646 241.348 124.693 241.361 124.737C241.373 124.782 241.395 124.824 241.424 124.86C241.452 124.896 241.488 124.926 241.529 124.949C241.569 124.971 241.614 124.985 241.66 124.99C242.084 125.079 242.479 125.27 242.814 125.545C243.148 125.82 243.411 126.172 243.58 126.57C243.609 126.625 243.653 126.671 243.705 126.705C243.758 126.738 243.818 126.757 243.88 126.76Z" fill="#263238"/>
<path d="M233.05 123.07C233.104 123.09 233.162 123.094 233.218 123.084C233.274 123.073 233.327 123.048 233.37 123.01C233.715 122.723 234.123 122.52 234.56 122.417C234.998 122.315 235.453 122.316 235.89 122.42C235.934 122.434 235.98 122.44 236.026 122.437C236.073 122.433 236.118 122.421 236.159 122.4C236.2 122.379 236.237 122.35 236.267 122.315C236.297 122.28 236.32 122.239 236.335 122.195C236.349 122.151 236.355 122.105 236.351 122.058C236.348 122.012 236.335 121.967 236.315 121.926C236.294 121.885 236.265 121.848 236.23 121.818C236.195 121.787 236.154 121.764 236.11 121.75C235.563 121.615 234.991 121.609 234.441 121.732C233.891 121.855 233.377 122.104 232.94 122.46C232.867 122.517 232.82 122.601 232.809 122.693C232.798 122.784 232.823 122.877 232.88 122.95C232.92 123.009 232.981 123.052 233.05 123.07Z" fill="#263238"/>
<path d="M262 158.09L262.83 159.22L263.58 160.28C264.08 160.99 264.53 161.7 265 162.41C265.91 163.84 266.77 165.29 267.6 166.75C269.264 169.669 270.772 172.673 272.12 175.75C272.82 177.27 273.42 178.85 274.06 180.4C274.7 181.95 275.24 183.56 275.73 185.18C276.784 188.404 277.652 191.686 278.33 195.01L278.41 195.39C278.557 196.061 278.57 196.755 278.448 197.431C278.326 198.107 278.072 198.752 277.7 199.33C276.412 201.308 274.883 203.118 273.15 204.72C271.367 206.354 269.344 207.703 267.15 208.72C264.985 209.729 262.666 210.371 260.29 210.62C259.127 210.74 257.956 210.76 256.79 210.68C256.21 210.68 255.63 210.57 255.05 210.48L254.17 210.31L253.17 210.06C253.053 210.031 252.951 209.958 252.887 209.855C252.824 209.752 252.803 209.628 252.83 209.51L254.21 203.71C254.21 203.66 254.47 203.65 254.63 203.61L255.18 203.5C255.56 203.42 255.93 203.33 256.31 203.23C257.051 203.029 257.776 202.775 258.48 202.47C259.843 201.911 261.119 201.16 262.27 200.24C264.522 198.387 266.321 196.044 267.53 193.39L266.9 197.71C266.04 194.88 265.13 192.08 264.03 189.31C262.93 186.54 261.73 183.82 260.42 181.14C259.11 178.46 257.71 175.81 256.2 173.23C255.46 171.94 254.68 170.67 253.9 169.41L252.71 167.55L252.12 166.65L251.57 165.85L251.37 165.55C250.381 164.14 249.992 162.395 250.289 160.699C250.587 159.003 251.546 157.494 252.955 156.505C254.365 155.516 256.11 155.127 257.806 155.424C259.502 155.721 261.011 156.68 262 158.09Z" fill="#263238"/>
<path d="M248.78 209.48L246.63 213L255.96 212.63C255.96 212.63 258.41 206.35 255.07 205.36L253.77 205.71C251.691 206.292 249.908 207.639 248.78 209.48Z" fill="#FF8B7B"/>
<path d="M252.62 204.55C251.948 205.004 251.37 205.585 250.92 206.26C253.46 207.64 257 212.34 257 212.34L257.82 209.76C257.924 209.427 257.954 209.076 257.907 208.73C257.861 208.384 257.739 208.053 257.55 207.76L256 205.26C255.831 204.985 255.607 204.747 255.342 204.561C255.078 204.375 254.779 204.245 254.463 204.179C254.146 204.112 253.82 204.111 253.503 204.175C253.186 204.239 252.886 204.366 252.62 204.55Z" fill="#407BFF"/>
<path d="M247.45 218.42L255.14 217.74L255.96 212.63L246.63 213L247.45 218.42Z" fill="#FF8B7B"/>
<path d="M153.06 96.34L152.55 95.48C154.016 94.6109 155.544 93.8489 157.12 93.2L157.5 94.13C155.967 94.7555 154.483 95.4942 153.06 96.34Z" fill="#407BFF"/>
<path d="M138.46 114L137.46 113.66C139.831 107.096 144.119 101.396 149.77 97.3L150.36 98.11C144.888 102.092 140.741 107.629 138.46 114Z" fill="#407BFF"/>
<path d="M170.2 156.17C187.199 156.17 200.98 142.389 200.98 125.39C200.98 108.391 187.199 94.61 170.2 94.61C153.201 94.61 139.42 108.391 139.42 125.39C139.42 142.389 153.201 156.17 170.2 156.17Z" fill="#407BFF"/>
<path opacity="0.6" d="M195.91 125.39C195.908 131.388 193.809 137.197 189.976 141.811C186.143 146.424 180.817 149.553 174.921 150.654C169.025 151.756 162.93 150.761 157.689 147.843C152.449 144.924 148.394 140.265 146.227 134.672C144.06 129.079 143.916 122.905 145.821 117.217C147.725 111.529 151.559 106.687 156.658 103.527C161.756 100.368 167.799 99.0906 173.74 99.9165C179.681 100.742 185.146 103.62 189.19 108.05C189.198 108.046 189.206 108.045 189.215 108.045C189.223 108.045 189.232 108.046 189.24 108.05C193.551 112.794 195.93 118.98 195.91 125.39Z" fill="white"/>
<path d="M195.91 125.39C195.91 130.388 194.453 135.277 191.718 139.46C188.983 143.642 185.089 146.937 180.511 148.942C175.932 150.946 170.87 151.572 165.941 150.744C161.012 149.916 156.432 147.67 152.76 144.28C148.271 139.388 145.848 132.948 145.999 126.31C146.151 119.672 148.865 113.349 153.573 108.667C158.281 103.985 164.618 101.305 171.257 101.19C177.896 101.075 184.323 103.534 189.19 108.05C189.198 108.046 189.206 108.045 189.215 108.045C189.224 108.045 189.232 108.046 189.24 108.05C193.551 112.794 195.931 118.98 195.91 125.39Z" fill="white"/>
<path d="M170.2 126.89C170.003 126.89 169.808 126.852 169.626 126.776C169.444 126.701 169.279 126.59 169.14 126.45L156.6 113.91C156.453 113.773 156.334 113.607 156.252 113.423C156.17 113.239 156.126 113.04 156.123 112.839C156.119 112.638 156.156 112.438 156.232 112.251C156.307 112.064 156.419 111.894 156.562 111.752C156.704 111.609 156.874 111.497 157.061 111.422C157.248 111.346 157.448 111.309 157.649 111.313C157.85 111.316 158.049 111.36 158.233 111.442C158.417 111.524 158.583 111.643 158.72 111.79L170.2 123.27L176.83 116.64C177.114 116.375 177.49 116.231 177.879 116.238C178.268 116.245 178.638 116.402 178.913 116.677C179.188 116.952 179.345 117.322 179.352 117.711C179.359 118.1 179.215 118.476 178.95 118.76L171.26 126.45C170.978 126.73 170.597 126.889 170.2 126.89Z" fill="#263238"/>
</svg>
